<?xml version="1.0" standalone="no"?>
<!DOCTYPE svg PUBLIC "-//W3C//DTD SVG 20010904//EN"
 "http://www.w3.org/TR/2001/REC-SVG-20010904/DTD/svg10.dtd">
<svg version="1.0" xmlns="http://www.w3.org/2000/svg"
 width="500.000000pt" height="500.000000pt" viewBox="0 0 500.000000 500.000000"
 preserveAspectRatio="xMidYMid meet">

<g transform="translate(0.000000,500.000000) scale(0.100000,-0.100000)"
fill="#000000" stroke="none">
<path d="M2136 3249 c-120 -18 -229 -87 -270 -172 -36 -74 -41 -123 -22 -192
25 -85 77 -130 244 -211 159 -77 232 -125 286 -184 173 -192 69 -437 -184
-434 -86 0 -155 29 -216 88 -62 61 -78 106 -72 216 l3 75 -34 -2 c-43 -2 -51
-11 -63 -70 -24 -128 33 -253 141 -307 111 -57 298 -62 405 -13 89 41 140 88
177 162 28 57 31 72 26 123 -13 152 -109 249 -377 382 -207 102 -255 157 -248
281 3 56 9 75 34 110 110 152 344 137 441 -28 21 -36 27 -63 31 -124 l5 -79
31 0 c54 0 61 12 60 90 -2 87 -44 182 -100 225 -74 57 -186 81 -298 64z"/>
<path d="M2734 3205 c-42 -65 -19 -1141 26 -1189 4 -4 25 -3 45 4 l38 12 -6
82 c-3 44 -11 147 -18 228 -7 90 -10 294 -8 518 l4 370 -32 0 c-23 0 -37 -7
-49 -25z"/>
<path d="M3140 2612 c0 -5 11 -14 25 -20 14 -6 25 -15 25 -20 0 -5 -11 -14
-25 -20 -40 -18 -29 -32 25 -32 54 0 71 20 18 21 -31 0 -32 1 -10 11 12 6 22
15 22 19 0 5 -10 14 -22 21 -22 12 -22 13 12 19 31 6 30 7 -17 8 -29 0 -53 -3
-53 -7z"/>
<path d="M3177 2430 c-60 -10 -68 -17 -42 -37 36 -26 75 -44 75 -33 0 5 -4 10
-10 10 -19 0 -10 42 10 47 11 3 20 9 20 14 0 5 -1 8 -2 8 -2 -1 -25 -5 -51 -9z
m3 -30 c0 -5 -4 -10 -9 -10 -6 0 -13 5 -16 10 -3 6 1 10 9 10 9 0 16 -4 16
-10z"/>
<path d="M3162 2256 c-11 -25 -12 -25 -46 -11 -41 17 -46 18 -46 7 0 -4 20
-15 45 -25 l46 -16 10 26 c13 35 6 52 -9 19z"/>
<path d="M3018 2145 c-18 -39 3 -55 43 -31 36 21 49 14 24 -14 -22 -24 -14
-38 9 -15 18 19 21 51 6 60 -6 4 -22 -1 -36 -10 -30 -20 -43 -12 -26 15 8 13
8 20 2 20 -6 0 -16 -11 -22 -25z"/>
<path d="M2950 2051 c0 -11 61 -61 75 -61 11 0 -14 28 -47 51 -15 11 -28 16
-28 10z"/>
<path d="M2816 1921 c-3 -5 1 -14 9 -21 27 -22 17 -32 -25 -25 -22 4 -40 4
-40 0 0 -12 52 -75 62 -75 5 0 0 14 -12 30 -23 33 -19 36 29 19 18 -6 34 -9
37 -6 5 5 -44 87 -52 87 -1 0 -5 -4 -8 -9z"/>
<path d="M2652 1823 c-44 -18 -32 -93 16 -93 15 0 33 5 40 12 19 19 14 55 -10
72 -24 17 -26 17 -46 9z m49 -34 c9 -17 8 -25 -4 -37 -27 -26 -67 6 -53 43 8
22 44 18 57 -6z"/>
<path d="M2521 1757 c-6 -16 -11 -33 -11 -40 0 -6 -13 2 -30 18 -28 27 -30 27
-30 8 0 -37 12 -83 22 -83 6 0 7 14 3 33 -7 31 -7 32 12 15 25 -23 29 -23 38
5 7 21 7 21 12 2 10 -41 26 -41 18 0 -11 63 -22 75 -34 42z"/>
<path d="M2206 1725 c-5 -15 -1 -21 39 -51 19 -14 18 -15 -12 -11 -18 2 -33 0
-33 -5 0 -11 46 -21 59 -13 20 12 11 42 -15 53 -28 14 -23 36 7 27 11 -4 19
-2 19 4 0 17 -57 13 -64 -4z"/>
<path d="M2354 1718 c3 -13 6 -36 6 -51 0 -16 3 -26 8 -23 11 6 2 96 -10 96
-6 0 -8 -10 -4 -22z"/>
</g>
</svg>
